<?xml version="1.0" encoding="iso-8859-1"?>
<!-- Generator: Adobe Illustrator 18.0.0, SVG Export Plug-In . SVG Version: 6.00 Build 0)  -->
<!DOCTYPE svg PUBLIC "-//W3C//DTD SVG 1.1//EN" "http://www.w3.org/Graphics/SVG/1.1/DTD/svg11.dtd">
<svg version="1.1" id="Capa_1" xmlns="http://www.w3.org/2000/svg" xmlns:xlink="http://www.w3.org/1999/xlink" x="0px" y="0px"
	 viewBox="0 0 372 372" style="enable-background:new 0 0 372 372;" xml:space="preserve">
<g>
	<path d="M372,186C372,83.439,288.561,0,186,0S0,83.439,0,186s83.439,186,186,186S372,288.561,372,186z M186,20
		c75.943,0,140.134,51.262,159.798,121h-52.384c0.846-4.755,1.312-9.458,1.312-13.922c0-10.209-2.266-22.745-6.217-34.393
		c-3.45-10.174-9.651-23.915-19.597-31.598c-3.602-2.782-8.625-2.782-12.227,0c-9.945,7.683-16.146,21.424-19.598,31.599
		c-3.95,11.651-6.216,24.187-6.216,34.393c0,4.465,0.465,9.167,1.312,13.922h-14.953c-0.744-3.416-1.693-6.864-2.828-10.212
		c-2.652-7.821-7.458-18.414-15.29-24.464c-3.602-2.782-8.625-2.782-12.227,0c-7.832,6.05-12.638,16.643-15.29,24.465
		c-1.135,3.348-2.084,6.796-2.828,10.211H26.202C45.866,71.262,110.057,20,186,20z M295.497,310.654
		c-10.275-7.118-20.746-13.951-31.389-20.502c19.142-3.782,38.392-6.726,57.713-8.823
		C314.226,292.117,305.38,301.961,295.497,310.654z M238.561,275.172c-4.83-2.694-9.696-5.321-14.587-7.898
		c38.507-9.945,77.558-16.651,116.315-20.031c-1.73,4.343-3.644,8.592-5.721,12.746C302.346,262.779,270.29,267.845,238.561,275.172
		z M197.186,253.896c-0.99-0.468-1.975-0.947-2.968-1.41c-4.572-2.133-9.177-4.2-13.799-6.233
		c55.425-18.57,112.063-29.764,169.417-33.517c-0.765,4.703-1.724,9.34-2.876,13.902
		C297.014,230.396,246.524,239.545,197.186,253.896z M186.889,156.911c0-5.513,1.398-13.062,3.649-19.7
		c0.788-2.325,1.621-4.379,2.462-6.173c0.841,1.793,1.674,3.848,2.462,6.172c2.251,6.639,3.649,14.187,3.649,19.7
		c0,5.246-1.274,11.484-3.497,17.113c-0.782,1.982-1.664,3.842-2.614,5.533c-0.95-1.691-1.832-3.551-2.614-5.533
		C188.163,168.395,186.889,162.157,186.889,156.911z M203,199.508c5.531-5.698,9.097-12.768,11.218-18.141
		c2.613-6.62,4.236-13.708,4.723-20.368h19.144c2.965,7.03,7.683,15.725,14.716,22.557V205c0,0.329,0.018,0.653,0.049,0.973
		c-16.735,3.497-33.367,7.615-49.849,12.345V199.508z M250.873,127.078c0-7.991,1.928-18.447,5.156-27.969
		c1.949-5.747,4.295-10.854,6.771-14.865c2.476,4.011,4.821,9.118,6.771,14.865c3.229,9.52,5.156,19.976,5.156,27.969
		c0,7.578-1.826,16.55-5.011,24.617c-1.965,4.977-4.323,9.368-6.916,12.933c-2.592-3.565-4.951-7.956-6.916-12.933
		C252.699,143.627,250.873,134.655,250.873,127.078z M307.514,196.797c-11.602,1.466-23.177,3.25-34.714,5.311v-18.55
		c7.033-6.832,11.751-15.528,14.715-22.557h62.603c1.237,8.156,1.882,16.504,1.882,25c0,2.233-0.058,4.452-0.145,6.664
		C337.03,193.57,322.238,194.936,307.514,196.797z M20,186c0-8.496,0.645-16.844,1.882-25H167.06
		c0.487,6.66,2.11,13.747,4.723,20.368c2.121,5.372,5.686,12.443,11.218,18.141v24.871c-10.147,3.241-20.23,6.71-30.236,10.415
		c-36-14.012-73.29-25.086-111.351-33.011c-6.963-1.45-13.967-2.784-20.991-4.025C20.148,193.873,20,189.954,20,186z
		 M37.337,221.363c87.654,18.251,168.714,52.559,241.566,102.14c-4.984,3.378-10.166,6.484-15.515,9.315
		c-26.867-17.436-54.934-33.013-83.924-46.539c-48.21-22.493-99.289-39.475-151.834-50.493c-1.767-5.609-3.241-11.347-4.41-17.194
		C27.94,219.472,32.649,220.387,37.337,221.363z M241.404,342.48c-6.351,2.255-12.877,4.134-19.554,5.609
		c-18.576-10.889-37.646-20.922-57.138-30.017c-37.951-17.707-77.685-31.985-118.507-42.642c-3.543-5.518-6.764-11.261-9.646-17.198
		C109.917,275.076,178.525,303.308,241.404,342.48z M188.059,351.974c-0.687,0.009-1.37,0.026-2.059,0.026
		c-46.333,0-88.285-19.088-118.427-49.804C109.514,314.915,149.746,331.532,188.059,351.974z"/>
</g>
<g>
</g>
<g>
</g>
<g>
</g>
<g>
</g>
<g>
</g>
<g>
</g>
<g>
</g>
<g>
</g>
<g>
</g>
<g>
</g>
<g>
</g>
<g>
</g>
<g>
</g>
<g>
</g>
<g>
</g>
</svg>
